<svg width="251" height="243" viewBox="0 0 251 243" fill="none" xmlns="http://www.w3.org/2000/svg">
<g clip-path="url(#clip0_3_693)">
<path d="M28.0158 112.409C27.9611 112.41 27.9071 112.397 27.8589 112.371C27.8084 112.345 27.7655 112.307 27.7344 112.26C24.764 107.752 22.4589 102.839 20.8902 97.6734C18.4014 89.6031 17.8295 81.0635 19.22 72.7334C20.6106 64.4034 23.9252 56.5125 28.9004 49.6882C32.0306 45.3491 35.7655 41.4802 39.9918 38.1992C40.0635 38.1445 40.1539 38.1202 40.2434 38.1315C40.2873 38.1372 40.3297 38.1515 40.3681 38.1736C40.4065 38.1958 40.4401 38.2253 40.4671 38.2605C40.494 38.2957 40.5136 38.3359 40.5249 38.3788C40.5362 38.4217 40.5389 38.4663 40.5328 38.5102C40.5276 38.5545 40.5134 38.5973 40.4911 38.6359C40.4687 38.6745 40.4388 38.7082 40.403 38.7348C36.2262 41.9802 32.535 45.8062 29.4414 50.0967C24.526 56.8365 21.2511 64.6303 19.8775 72.8582C18.5038 81.0862 19.0692 89.5211 21.5286 97.4921C23.0799 102.594 25.3576 107.445 28.2917 111.897C28.3414 111.972 28.3599 112.063 28.3431 112.152C28.3347 112.195 28.3177 112.236 28.2931 112.273C28.2685 112.31 28.2367 112.341 28.1997 112.365C28.1721 112.386 28.1409 112.4 28.1077 112.409C28.0773 112.413 28.0462 112.413 28.0158 112.409Z" fill="#666538"/>
<path d="M34.124 241.58C53.2283 241.425 72.3325 241.348 91.4368 241.35C110.541 241.352 129.645 241.429 148.75 241.58C159.141 241.661 169.53 241.766 179.916 241.894C190.303 242.022 200.691 242.173 211.081 242.346C210.531 228.876 209.275 215.444 207.318 202.106C204.899 185.633 201.393 169.338 196.824 153.328C194.062 143.665 185.697 114.373 173.886 87.2691C162.075 60.1655 146.834 35.2694 130.297 34.3983C121.064 33.9141 108.491 40.7691 92.4891 70.2181C76.4878 99.6671 57.0562 151.705 34.124 241.58Z" fill="#353519"/>
<path d="M29.698 127.455H29.6655H29.633C28.8377 130.607 27.7394 133.677 26.6194 136.729C25.4995 139.78 24.366 142.815 23.5111 145.959C22.5992 149.111 22.1062 152.37 22.0449 155.652C22.026 158.898 22.5724 162.114 23.9575 165.058C24.6242 166.471 25.4717 167.791 26.4788 168.986C27.4841 170.183 28.6335 171.252 29.9009 172.167C31.0533 172.998 32.4925 173.579 33.8451 174.261C35.1977 174.943 36.4556 175.727 37.2509 176.966C39.7424 180.864 38.2654 184.335 35.7577 187.557C33.2499 190.779 29.7115 193.752 28.0775 196.66C26.8467 198.851 26.1839 201.365 25.9134 203.937C25.6645 206.478 25.6645 209.036 25.9134 211.577C26.1129 213.793 26.4445 215.995 26.9062 218.172C27.3634 220.352 27.9315 222.5 28.5699 224.635C28.6889 225.035 28.9919 226.044 29.4653 227.47C29.9387 228.896 30.5907 230.735 31.4077 232.791C32.2246 234.847 33.1607 237.006 33.91 238.697C34.6593 240.387 35.2112 241.578 35.2112 241.578H38.9661H42.7209C42.7209 241.578 40.5567 237.555 38.2167 231.839C35.8767 226.123 33.3473 218.697 32.5844 211.907C32.2966 209.312 32.5471 206.685 33.3203 204.191C34.0666 201.753 35.3256 199.503 37.0129 197.591C39.2988 195.021 41.7037 192.148 43.381 189.004C45.0582 185.861 46.005 182.439 45.3801 178.776C44.7328 175.075 42.7018 171.758 39.6992 169.5C38.4791 168.591 37.1157 167.877 35.7928 167.103C34.47 166.329 33.1931 165.518 32.1435 164.417C31.2583 163.482 30.5482 162.396 30.0469 161.211C29.5504 160.031 29.2094 158.792 29.0325 157.524C28.7122 155.092 28.7962 152.624 29.2814 150.22C29.7686 147.79 30.4526 145.405 31.3265 143.086C32.1678 140.768 33.1011 138.474 33.9343 136.152C34.7978 133.847 35.463 131.472 35.9227 129.054L32.8117 128.242L29.698 127.455Z" fill="#BAB653"/>
<path d="M28.1509 132.249L30.031 136.877L31.9247 141.503C31.9247 141.503 32.6578 139.629 33.4098 137.616C34.1619 135.603 34.9383 133.45 35.033 132.893L33.5965 130.25L32.16 127.604L30.169 129.928L28.1509 132.249Z" fill="#353519"/>
<path d="M23.222 112.787C21.8998 112.72 20.5859 113.032 19.4347 113.686C18.3108 114.319 17.4061 115.28 16.8404 116.439C16.2532 117.678 16.0497 119.064 16.2561 120.419C16.4433 121.819 17.1729 123.09 18.2877 123.957C19.1142 124.579 20.1 124.954 21.1309 125.039C22.2153 125.124 23.3038 124.938 24.2987 124.498C22.9158 125.106 21.7987 126.193 21.1525 127.558C20.5109 128.893 20.3837 130.417 20.7954 131.84C21.2221 133.26 22.1497 134.477 23.406 135.265C24.6223 136.055 26.0917 136.356 27.5206 136.109C28.8197 135.847 29.9862 135.139 30.8183 134.107C31.2689 133.576 31.6406 132.983 31.922 132.346C32.1526 133.103 32.4916 133.823 32.9283 134.483C33.7313 135.751 34.9333 136.716 36.345 137.226C37.737 137.697 39.2408 137.724 40.649 137.305C42.075 136.909 43.309 136.009 44.1225 134.773C44.6839 133.873 44.9975 132.841 45.0315 131.781C45.0562 131.145 44.9989 130.508 44.8611 129.887C45.879 131.102 47.1927 132.033 48.6754 132.592C50.0381 133.111 51.5292 133.19 52.9388 132.817C53.6157 132.63 54.2625 132.348 54.8595 131.978C55.9074 131.348 56.7133 130.384 57.1482 129.241C57.5856 128.016 57.5856 126.678 57.1482 125.453C56.9369 124.814 56.6324 124.21 56.2446 123.66C57.7681 124.142 59.4152 124.05 60.8759 123.403C62.2629 122.802 63.3659 121.691 63.9572 120.3C64.4846 118.973 64.4904 117.495 63.9734 116.164C63.504 114.895 62.6713 113.793 61.5793 112.996C60.8198 112.458 59.9503 112.096 59.0337 111.935C58.4556 111.831 57.8667 111.799 57.2807 111.841C57.8484 111.431 58.3612 110.95 58.8065 110.41C59.5003 109.588 59.9601 108.595 60.1374 107.534C60.408 105.7 59.7371 103.787 58.5143 102.297C57.2915 100.806 55.4899 99.7455 53.5475 99.6157C52.0915 99.5435 50.6517 99.9481 49.4464 100.768C48.76 101.215 48.1383 101.754 47.5987 102.37C47.6603 101.556 47.6176 100.738 47.4716 99.9349C47.2647 98.7122 46.7214 97.5712 45.9026 96.6399C44.3741 94.96 41.9205 94.2052 39.5101 94.373C37.0998 94.5407 34.7327 95.5795 33.3801 97.4867C32.5808 98.6458 32.1465 100.018 32.133 101.425C32.1086 102.299 32.1995 103.172 32.4035 104.022C31.551 102.895 30.4189 102.01 29.1194 101.455C27.887 100.924 26.524 100.772 25.2049 101.02C23.4218 101.407 21.8458 102.443 20.7819 103.925C19.7296 105.37 19.2237 107.139 19.6295 108.794C19.9268 109.913 20.5673 110.91 21.4609 111.646C21.9952 112.102 22.5873 112.486 23.222 112.787Z" fill="#DEB8FC"/>
<path d="M35.2709 112.444C34.2173 112.111 33.1025 112.019 32.0084 112.173C31.4598 112.248 30.9339 112.441 30.4669 112.738C29.9999 113.036 29.6029 113.431 29.3032 113.897C28.397 115.309 28.6323 116.872 29.4764 118.046C29.9052 118.654 30.4822 119.142 31.1526 119.464C31.823 119.786 32.5646 119.931 33.307 119.886C33.2285 119.886 33.1041 120.064 32.9931 120.251C32.8822 120.438 32.7767 120.633 32.7443 120.689C32.4711 121.137 32.2954 121.636 32.2288 122.156C32.1621 122.676 32.2059 123.204 32.3574 123.706C32.5161 124.205 32.7836 124.662 33.1405 125.045C33.4974 125.429 33.935 125.728 34.4215 125.921C35.4062 126.33 36.5478 126.159 37.5569 125.675C38.5427 125.211 39.3623 124.456 39.905 123.511C40.1374 123.04 40.3363 122.554 40.5001 122.056C40.6679 121.569 40.7869 121.176 40.7869 121.176C41.7256 122.275 42.2964 122.889 42.6346 123.227C42.7689 123.374 42.9155 123.508 43.0728 123.63C43.4849 123.878 43.9291 124.068 44.3929 124.195C45.2791 124.462 46.2277 124.437 47.0982 124.122C47.3237 124.037 47.541 123.931 47.7474 123.806C47.9633 123.676 48.1662 123.525 48.3534 123.357C49.1019 122.68 49.5932 121.765 49.7439 120.768C49.8342 120.276 49.8143 119.771 49.6856 119.288C49.557 118.806 49.3228 118.357 48.9999 117.976C48.7103 117.671 48.3944 117.392 48.0558 117.143C47.7312 116.899 47.4715 116.721 47.4715 116.721L47.8475 116.537L48.1803 116.369C48.6682 116.113 49.1002 115.762 49.451 115.337C49.8017 114.912 50.064 114.422 50.2227 113.894C50.3954 113.365 50.4578 112.806 50.4061 112.252C50.3545 111.698 50.1899 111.16 49.9224 110.672C49.5927 110.091 49.1117 109.61 48.5306 109.28C47.9495 108.951 47.29 108.785 46.622 108.8C45.9509 108.797 45.287 108.938 44.6745 109.212C44.062 109.487 43.5151 109.888 43.0701 110.391C43.0871 110.166 43.0871 109.939 43.0701 109.714C43.0517 109.419 43.0019 109.126 42.9213 108.841C42.685 108.026 42.2147 107.299 41.5687 106.749C41.236 106.454 40.8647 106.204 40.465 106.008C39.6764 105.647 38.8086 105.492 37.9437 105.559C37.016 105.61 36.138 105.994 35.4711 106.641C34.9128 107.22 34.5423 107.953 34.408 108.746C34.3296 109.151 34.3069 109.565 34.3403 109.977C34.3647 110.218 34.4118 110.456 34.481 110.688C34.5351 110.873 34.601 111.053 34.6785 111.229C34.7164 111.332 34.8111 111.619 34.922 111.889C35.0329 112.16 35.1627 112.414 35.2709 112.444Z" fill="#F98638"/>
<path d="M34.2512 241.58C34.0456 239.8 33.1529 230.935 35.4009 219.581C37.6489 208.228 43.0296 194.39 55.3708 182.669C63.7105 174.769 73.8445 169.013 84.901 165.896C95.9031 162.807 107.657 162.444 118.943 165.493C134.093 169.586 147.186 179.498 156.254 192.94C165.322 206.383 170.38 223.358 169.488 241.572H34.2512V241.58Z" fill="#353519"/>
<path d="M34.189 241.58H211.081C212.68 236.006 213.588 230.257 213.786 224.462C214.027 216.825 212.99 207.703 208.838 198.456C202.705 184.8 191.216 174.082 177.522 167.739C163.828 161.395 147.927 159.423 132.975 163.256C117.218 167.298 106.175 176.847 98.8897 185.839C91.6045 194.831 88.0688 203.272 87.3384 205.092C82.0596 187.449 77.0856 174.283 72.4164 165.596C67.7472 156.909 63.3774 152.704 59.3069 152.982C54.149 153.33 49.4771 160.886 45.2912 175.651C41.1053 190.416 37.4046 212.393 34.189 241.58Z" fill="#666538"/>
<path d="M122.59 193.105L116.098 217.271L109.605 241.434H139.165L132.672 217.271L126.18 193.105C126.073 192.71 125.838 192.36 125.512 192.111C125.187 191.862 124.788 191.727 124.378 191.727C123.968 191.727 123.57 191.862 123.244 192.111C122.918 192.36 122.684 192.71 122.577 193.105H122.59Z" fill="#F98638"/>
<path d="M59.7366 220.15L56.861 230.865L53.9854 241.58H67.5791L64.7034 230.865L61.8278 220.15C61.7664 219.919 61.6306 219.715 61.4415 219.57C61.2524 219.425 61.0207 219.346 60.7822 219.346C60.5438 219.346 60.312 219.425 60.1229 219.57C59.9339 219.715 59.7981 219.919 59.7366 220.15Z" fill="#F98638"/>
<path d="M81.276 241.58H73.1766H65.0771L68.3748 166.186L71.6725 90.7913H73.1766H74.6807L77.9783 166.186L81.276 241.58Z" fill="white"/>
<path d="M148.749 241.58H141.288H133.83L136.79 189.121L139.746 136.664H141.25H142.755L145.752 189.121L148.749 241.58Z" fill="white"/>
<path d="M175.25 115.666C175.178 115.665 175.108 115.642 175.05 115.599C174.992 115.556 174.95 115.496 174.928 115.428C173.828 111.98 172.226 108.713 170.175 105.732C166.821 100.809 162.264 96.824 156.937 94.157C151.61 91.4899 145.69 90.229 139.738 90.4939C136.011 90.6282 132.325 91.3212 128.804 92.5498C128.741 92.573 128.672 92.5769 128.607 92.5609C128.542 92.545 128.483 92.5099 128.437 92.4603C128.392 92.4107 128.363 92.3487 128.353 92.2822C128.343 92.2158 128.353 92.1479 128.382 92.0872C128.42 92.0064 128.49 91.9441 128.574 91.9141C132.162 90.6627 135.917 89.9569 139.714 89.8203C145.779 89.5494 151.813 90.8338 157.242 93.5516C162.671 96.2694 167.315 100.33 170.732 105.348C172.822 108.384 174.454 111.711 175.574 115.222C175.601 115.308 175.592 115.4 175.551 115.479C175.509 115.558 175.438 115.617 175.353 115.644L175.301 115.658L175.25 115.666Z" fill="#666538"/>
<path d="M79.9204 241.58C77.1448 237.119 76.29 232.382 77.0069 228.179C77.7238 223.975 80.0124 220.333 83.5319 218.018C86.2238 216.332 89.2745 215.304 92.4374 215.015C95.8487 214.693 99.471 215.229 102.585 217.179C105.084 218.731 106.984 221.083 107.976 223.853C108.513 225.293 108.815 226.81 108.869 228.346C111.38 227.652 114.051 227.817 116.457 228.814C118.64 229.748 120.309 231.338 120.953 233.24C121.422 234.711 121.326 236.303 120.683 237.706C119.963 239.298 118.797 240.647 117.325 241.588H79.9204V241.58Z" fill="#E9CF81"/>
<path d="M188.822 241.883C188.798 241.886 188.773 241.886 188.749 241.883C188.724 241.878 188.701 241.87 188.678 241.859C188.638 241.84 188.602 241.813 188.571 241.78C188.541 241.747 188.518 241.709 188.503 241.667C188.487 241.623 188.48 241.577 188.482 241.53C188.484 241.484 188.496 241.438 188.516 241.396L209.982 196.051L231.445 150.701C231.484 150.621 231.553 150.558 231.637 150.528C231.68 150.509 231.726 150.5 231.773 150.5C231.819 150.5 231.865 150.509 231.908 150.528C231.988 150.567 232.051 150.636 232.081 150.72C232.098 150.763 232.106 150.81 232.104 150.857C232.101 150.903 232.089 150.949 232.068 150.991L210.593 196.341L189.128 241.691C189.099 241.749 189.055 241.798 189 241.832C188.947 241.865 188.885 241.882 188.822 241.883Z" fill="#666538"/>
<path d="M188.822 241.883H188.757C188.713 241.875 188.671 241.858 188.633 241.834C188.596 241.81 188.564 241.778 188.539 241.741C188.513 241.704 188.496 241.662 188.487 241.618C188.478 241.575 188.478 241.529 188.486 241.486L201.271 176.56L214.053 111.635C214.062 111.591 214.079 111.55 214.103 111.513C214.128 111.475 214.16 111.444 214.197 111.419C214.272 111.37 214.363 111.352 214.451 111.37C214.495 111.378 214.536 111.394 214.573 111.419C214.61 111.444 214.641 111.476 214.665 111.513C214.69 111.55 214.707 111.591 214.716 111.634C214.725 111.677 214.725 111.722 214.716 111.765L201.934 176.69L189.152 241.615C189.136 241.692 189.094 241.761 189.034 241.81C188.973 241.86 188.897 241.886 188.819 241.886L188.822 241.883Z" fill="#666538"/>
<path d="M243.87 91.124C244.01 96.4829 242.288 101.725 238.997 105.956C235.706 110.188 231.049 113.147 225.821 114.331C220.592 115.514 215.115 114.848 210.323 112.446C205.53 110.044 201.718 106.055 199.537 101.158C197.356 96.2613 196.94 90.7596 198.36 85.5904C199.78 80.4212 202.949 75.9043 207.326 72.8092C211.703 69.714 217.017 68.2322 222.364 68.616C227.711 68.9999 232.76 71.2257 236.65 74.9143C238.863 77.0067 240.64 79.5161 241.879 82.298C243.118 85.08 243.795 88.0795 243.87 91.124Z" fill="white"/>
<path d="M250.36 146.202C250.448 149.491 249.393 152.708 247.374 155.305C245.356 157.903 242.5 159.721 239.292 160.448C236.083 161.176 232.722 160.769 229.781 159.296C226.839 157.823 224.499 155.376 223.16 152.372C221.82 149.367 221.564 145.991 222.435 142.819C223.305 139.647 225.249 136.874 227.934 134.974C230.62 133.075 233.881 132.165 237.162 132.4C240.443 132.635 243.541 134 245.929 136.263C247.285 137.547 248.375 139.086 249.135 140.791C249.895 142.497 250.312 144.336 250.36 146.202Z" fill="white"/>
<path d="M237.797 91.0564C236.559 91.0408 235.361 90.6167 234.388 89.8499C233.363 89.0558 232.607 87.9647 232.224 86.7254C231.006 87.3826 229.626 87.68 228.245 87.5829C226.94 87.498 225.699 86.9855 224.715 86.1248C223.911 85.3925 223.328 84.4498 223.032 83.4034C222.839 82.7526 222.738 82.0777 222.734 81.3988C222.735 81.3545 222.743 81.3106 222.761 81.2698C222.778 81.2289 222.803 81.1918 222.834 81.1607C222.898 81.0987 222.984 81.0638 223.073 81.0634C223.117 81.0635 223.161 81.0724 223.202 81.0896C223.242 81.1068 223.279 81.1319 223.311 81.1634C223.342 81.1945 223.367 81.2316 223.384 81.2725C223.4 81.3134 223.409 81.3573 223.408 81.4015C223.415 82.0099 223.506 82.6144 223.678 83.1978C223.938 84.1327 224.454 84.9762 225.169 85.6325C226.101 86.4398 227.283 86.8996 228.515 86.9337C229.837 86.9801 231.143 86.6327 232.268 85.9354L232.468 85.811L232.671 85.6893L232.722 85.9192L232.773 86.1492C233.083 87.5041 233.885 88.6957 235.024 89.4928C235.554 89.8755 236.157 90.1438 236.796 90.2807C237.435 90.4176 238.096 90.4202 238.736 90.2881C239.742 90.047 240.638 89.4755 241.281 88.665C241.97 87.8191 242.394 86.7886 242.499 85.7028C242.503 85.6558 242.517 85.6103 242.541 85.5692C242.564 85.5282 242.596 85.4926 242.634 85.4647C242.704 85.4087 242.793 85.3824 242.882 85.3915C242.971 85.4006 243.053 85.4444 243.11 85.5134C243.167 85.5824 243.194 85.6708 243.186 85.7596C243.066 86.9868 242.584 88.1506 241.801 89.1033C241.061 90.016 240.039 90.6573 238.895 90.9266C238.54 91.0053 238.177 91.0452 237.813 91.0456L237.797 91.0564Z" fill="#DEB8FC"/>
<path d="M208.307 101.815C207.726 101.809 207.158 101.643 206.665 101.334C206.357 101.145 206.076 100.914 205.832 100.647C205.803 100.613 205.78 100.574 205.766 100.532C205.751 100.49 205.745 100.445 205.748 100.4C205.75 100.356 205.76 100.312 205.779 100.272C205.799 100.232 205.826 100.197 205.859 100.168C205.892 100.138 205.931 100.116 205.973 100.101C206.014 100.087 206.059 100.081 206.103 100.084C206.147 100.085 206.191 100.096 206.232 100.115C206.272 100.134 206.308 100.161 206.338 100.195C206.533 100.41 206.758 100.597 207.006 100.749C207.395 100.998 207.846 101.133 208.307 101.139C208.904 101.129 209.478 100.911 209.931 100.522C210.419 100.109 210.775 99.56 210.953 98.9449L211.021 98.7204L211.086 98.4932L211.278 98.6284L211.473 98.7664C212.017 99.1481 212.684 99.3157 213.345 99.2371C213.655 99.2042 213.955 99.1071 214.225 98.952C214.496 98.7969 214.731 98.5872 214.916 98.3362C215.196 97.9306 215.331 97.4429 215.3 96.9512C215.273 96.43 215.092 95.9285 214.781 95.5093C214.754 95.4737 214.735 95.4331 214.724 95.3899C214.713 95.3466 214.712 95.3017 214.719 95.2577C214.732 95.1693 214.78 95.0898 214.851 95.0359C214.924 94.9841 215.014 94.9619 215.103 94.9737C215.192 94.9877 215.272 95.0363 215.325 95.1089C215.72 95.6427 215.946 96.2824 215.974 96.9458C216.008 97.5789 215.83 98.2053 215.468 98.7258C215.033 99.3233 214.385 99.731 213.658 99.8647C212.909 100.012 212.133 99.8995 211.456 99.5455C211.186 100.198 210.741 100.764 210.171 101.182C209.635 101.585 208.984 101.806 208.313 101.815H208.297H208.307Z" fill="#DEB8FC"/>
<path d="M243.489 157.318C243.364 157.318 243.243 157.318 243.118 157.299C242.995 157.286 242.872 157.266 242.75 157.24C241.783 157.019 240.941 156.427 240.405 155.592C239.837 154.733 239.585 153.703 239.693 152.679C238.736 152.715 237.787 152.484 236.953 152.013C236.164 151.57 235.538 150.886 235.168 150.06C234.869 149.35 234.775 148.57 234.897 147.809C234.965 147.334 235.101 146.872 235.3 146.435C235.318 146.394 235.344 146.358 235.377 146.328C235.409 146.297 235.448 146.274 235.489 146.259C235.532 146.241 235.578 146.232 235.625 146.232C235.671 146.232 235.717 146.241 235.76 146.259C235.8 146.278 235.837 146.304 235.867 146.337C235.897 146.37 235.92 146.408 235.936 146.45C235.951 146.491 235.958 146.536 235.956 146.58C235.954 146.624 235.944 146.668 235.925 146.708C235.755 147.08 235.638 147.475 235.579 147.88C235.476 148.52 235.555 149.176 235.806 149.773C236.148 150.53 236.743 151.144 237.489 151.51C238.286 151.91 239.184 152.064 240.069 151.954L240.302 151.927L240.537 151.9L240.489 152.13L240.44 152.359C240.247 153.273 240.4 154.225 240.87 155.032C241.086 155.414 241.378 155.747 241.729 156.01C242.079 156.273 242.48 156.46 242.907 156.561C243.585 156.696 244.289 156.601 244.906 156.29C245.564 155.967 246.112 155.457 246.481 154.824C246.503 154.785 246.532 154.751 246.568 154.724C246.603 154.698 246.643 154.678 246.686 154.667C246.731 154.654 246.779 154.651 246.825 154.657C246.872 154.663 246.916 154.678 246.957 154.702C247.034 154.749 247.09 154.824 247.114 154.91C247.125 154.953 247.127 154.998 247.121 155.042C247.114 155.085 247.099 155.127 247.076 155.165C246.701 155.809 246.168 156.347 245.528 156.728C244.915 157.107 244.21 157.311 243.489 157.318Z" fill="#DEB8FC"/>
<path d="M187.88 173.468L186.287 173.511L184.694 173.552C184.685 173.553 184.676 173.55 184.669 173.545C184.662 173.539 184.657 173.531 184.656 173.522C184.655 173.514 184.656 173.505 184.661 173.498C184.665 173.49 184.672 173.485 184.68 173.482C185.858 173.081 186.939 172.435 187.851 171.588C188.647 170.853 189.218 169.908 189.498 168.861C189.727 167.855 189.671 166.805 189.336 165.829C189.008 164.792 188.43 163.853 187.652 163.094C186.873 162.336 185.919 161.782 184.875 161.481C183.168 160.94 181.342 160.889 179.608 161.335C181.259 160.957 182.736 160.034 183.798 158.714C184.747 157.559 185.284 156.121 185.324 154.627C185.365 153.133 184.907 151.668 184.023 150.463C183.215 149.31 182.052 148.454 180.712 148.023C179.372 147.593 177.927 147.613 176.6 148.08C175.175 148.559 173.928 149.454 173.018 150.65C173.777 149.162 174.06 147.477 173.829 145.824C173.609 144.22 172.868 142.733 171.719 141.593C170.538 140.453 169.019 139.727 167.391 139.523C165.817 139.294 164.212 139.625 162.857 140.459C161.234 141.492 160.168 143.302 159.843 145.364C159.504 147.612 160.035 149.905 161.329 151.775C161.341 151.788 161.347 151.806 161.347 151.824C161.347 151.842 161.341 151.859 161.329 151.872C161.315 151.884 161.298 151.89 161.28 151.89C161.262 151.89 161.245 151.884 161.231 151.872C160.557 151.379 159.792 151.024 158.98 150.828C158.168 150.632 157.325 150.599 156.5 150.731C155.712 150.82 154.954 151.086 154.283 151.509C153.612 151.932 153.045 152.501 152.624 153.173C152.203 153.845 151.939 154.604 151.852 155.392C151.765 156.181 151.856 156.978 152.12 157.726C152.372 158.58 152.802 159.371 153.381 160.047C153.96 160.722 154.675 161.269 155.48 161.649C154.462 161.436 153.413 161.426 152.392 161.62C151.37 161.813 150.397 162.207 149.528 162.777C147.927 163.835 146.823 165.426 146.596 167.105C146.432 168.657 146.861 170.213 147.797 171.461C148.806 172.872 150.257 173.905 151.92 174.399L150.28 174.442L148.641 174.485C146.474 174.543 144.419 175.459 142.926 177.032C141.434 178.604 140.627 180.704 140.682 182.871C140.74 185.039 141.656 187.094 143.229 188.586C144.801 190.078 146.901 190.886 149.069 190.83L155.813 190.649L162.557 190.47C162.726 198.981 162.896 207.492 163.065 216.002C163.235 224.513 163.404 233.024 163.574 241.537L169.796 241.637L176.018 241.737L175.425 215.94L174.83 190.143L181.574 189.965L188.319 189.786C190.462 189.693 192.484 188.761 193.947 187.192C195.41 185.622 196.198 183.54 196.141 181.395C196.084 179.25 195.186 177.214 193.641 175.724C192.097 174.235 190.029 173.412 187.883 173.433L187.88 173.468Z" fill="#BAB653"/>
<path d="M158.012 161.825H155.185C155.141 161.825 155.097 161.816 155.056 161.799C155.015 161.782 154.978 161.757 154.947 161.725C154.915 161.694 154.89 161.656 154.873 161.615C154.856 161.574 154.847 161.53 154.847 161.485C154.847 161.441 154.856 161.397 154.873 161.356C154.89 161.315 154.915 161.277 154.947 161.246C155.011 161.184 155.096 161.149 155.185 161.149H158.012C158.079 161.149 158.144 161.168 158.2 161.205C158.256 161.242 158.299 161.295 158.325 161.356C158.351 161.418 158.357 161.486 158.345 161.552C158.332 161.617 158.3 161.677 158.253 161.725C158.221 161.757 158.184 161.782 158.143 161.799C158.101 161.816 158.057 161.825 158.012 161.825Z" fill="#666538"/>
<path d="M184.986 173.809H176.17C176.125 173.809 176.081 173.801 176.04 173.783C175.999 173.766 175.962 173.741 175.932 173.709C175.9 173.678 175.874 173.641 175.857 173.599C175.84 173.558 175.831 173.514 175.831 173.47C175.831 173.425 175.84 173.381 175.857 173.34C175.874 173.299 175.9 173.261 175.932 173.23C175.995 173.168 176.081 173.133 176.17 173.133H184.986C185.075 173.133 185.16 173.168 185.224 173.23C185.27 173.278 185.302 173.338 185.315 173.403C185.327 173.469 185.321 173.536 185.295 173.598C185.27 173.66 185.227 173.712 185.172 173.75C185.117 173.787 185.052 173.808 184.986 173.809Z" fill="#666538"/>
<path d="M163.642 241.724C161.531 240.711 159.867 238.956 158.967 236.795C158.1 234.769 158.053 232.486 158.835 230.427C159.509 228.756 160.703 227.346 162.241 226.407C163.853 225.417 165.723 224.932 167.613 225.014C166.932 223.293 166.493 221.485 166.309 219.644C166.009 216.706 166.309 213.038 168.655 209.875C171.2 206.426 175.445 204.516 179.746 204.254C184.047 203.991 188.438 205.384 191.254 208.541C193.786 211.377 194.408 214.907 194.379 217.788C194.367 219.606 194.105 221.414 193.6 223.16C196.629 221.246 200.268 220.543 203.793 221.191C207.12 221.766 210.085 223.633 212.041 226.385C213.622 228.709 214.384 231.493 214.205 234.298C214.028 237.242 212.941 240.059 211.094 242.359L187.369 242.048L163.642 241.724Z" fill="#E9CF81"/>
<path d="M55.2058 25.2493C55.2153 25.1689 55.2482 25.0932 55.3005 25.0315C55.3527 24.9698 55.422 24.9249 55.4997 24.9024C55.5773 24.8799 55.6599 24.8807 55.7371 24.9049C55.8143 24.9291 55.8826 24.9755 55.9335 25.0382C58.7467 28.5488 61.2555 32.2929 63.4324 36.2297C66.449 41.6769 68.81 47.4622 70.466 53.4647C72.0604 59.2546 72.988 65.2077 73.2307 71.2082C73.4079 75.585 73.2224 79.9689 72.6761 84.315C72.6663 84.3955 72.6329 84.4713 72.5801 84.5329C72.5273 84.5944 72.4574 84.639 72.3794 84.661C72.3013 84.683 72.2185 84.6814 72.1413 84.6564C72.0641 84.6314 71.9961 84.5842 71.9457 84.5206C69.7603 81.7903 67.7569 78.9193 65.9482 75.9261C59.6819 65.5667 55.9064 53.8938 54.9191 41.8268C54.4594 36.3053 54.5554 30.7516 55.2058 25.2493Z" fill="white"/>
<path d="M135.083 78.4555C135.16 78.478 135.23 78.5229 135.282 78.5845C135.334 78.6461 135.367 78.7218 135.377 78.802C135.386 78.8822 135.372 78.9634 135.335 79.0356C135.299 79.1077 135.242 79.1675 135.172 79.2076C131.254 81.4198 127.154 83.2941 122.917 84.8101C107.163 90.4474 90.0249 90.9362 73.9746 86.206C73.8971 86.1831 73.8282 86.138 73.7762 86.0763C73.7242 86.0145 73.6916 85.9388 73.6824 85.8586C73.6732 85.7784 73.6877 85.6973 73.7243 85.6253C73.7609 85.5534 73.8178 85.4938 73.888 85.4539C76.9345 83.7357 80.0901 82.2184 83.3346 80.9119C94.57 76.392 106.701 74.54 118.773 75.5014C124.295 75.9371 129.759 76.9268 135.083 78.4555Z" fill="white"/>
<path d="M71.6263 86.4602C71.7017 86.4312 71.784 86.4255 71.8626 86.4439C71.9412 86.4622 72.0125 86.5037 72.0673 86.563C72.1231 86.6219 72.1601 86.6961 72.1735 86.776C72.187 86.856 72.1764 86.9382 72.143 87.0121C70.2924 91.1144 68.095 95.0513 65.5748 98.7798C58.7104 108.954 49.5646 117.383 38.8661 123.397C35.0481 125.546 31.0576 127.373 26.9361 128.859C26.8588 128.888 26.7745 128.893 26.6944 128.873C26.6142 128.854 26.5419 128.81 26.4871 128.748C26.4324 128.689 26.3963 128.614 26.3833 128.535C26.3703 128.455 26.381 128.373 26.414 128.299C27.8572 125.111 29.5082 122.022 31.3565 119.05C37.7412 108.763 46.4265 100.098 56.7287 93.7373C61.4387 90.8195 66.4296 88.3816 71.6263 86.4602Z" fill="white"/>
<path d="M131.991 68.265C131.91 68.2653 131.832 68.2354 131.772 68.1811C131.71 68.128 131.669 68.0538 131.658 67.9728C130.878 62.9404 129.364 58.0495 127.165 53.4566C123.943 46.6611 118.508 38.8917 109.419 33.1025C102.442 28.6885 94.4513 26.133 86.2077 25.6794C81.2962 25.3673 76.3653 25.7645 71.5671 26.8589C71.5241 26.8694 71.4795 26.8712 71.4359 26.8642C71.3922 26.8572 71.3504 26.8416 71.3128 26.8183C71.2364 26.7707 71.182 26.6949 71.1613 26.6073C71.1409 26.5205 71.1556 26.4292 71.2022 26.3532C71.2488 26.2772 71.3236 26.2227 71.4102 26.2015C76.274 25.0923 81.2723 24.6896 86.251 25.0058C94.6101 25.4637 102.713 28.0546 109.786 32.5317C113.735 35.0368 117.297 38.1054 120.358 41.6402C123.465 45.2592 126.046 49.297 128.028 53.6351C129.333 56.4647 130.395 59.4006 131.201 62.4109C131.688 64.2077 132.065 66.0327 132.329 67.8754C132.341 67.9639 132.317 68.0534 132.264 68.1247C132.21 68.196 132.13 68.2435 132.042 68.2569H131.991V68.265Z" fill="#666538"/>
<path d="M92.0453 189.394C91.2736 192.58 90.9477 195.857 91.0768 199.133C91.1966 202.42 91.8811 205.662 93.1003 208.717C93.9273 210.746 95.0189 212.656 96.3466 214.398C97.6694 216.143 99.2396 217.686 101.008 218.978C102.875 220.364 105.053 221.274 107.351 221.629C109.516 221.973 111.802 221.862 114.282 221.564C115.935 221.352 117.614 221.467 119.222 221.905C120.748 222.33 122.155 223.103 123.334 224.161C124.407 225.159 125.225 226.399 125.72 227.778C126.222 229.152 126.541 230.587 126.667 232.044C126.713 232.518 126.78 234.901 126.824 237.168C126.867 239.435 126.886 241.58 126.837 241.58H134.193C134.193 241.58 134.258 240.274 134.266 238.453C134.287 236.376 134.197 234.299 133.995 232.231C133.817 230.457 133.492 228.701 133.024 226.98C132.397 224.722 131.447 222.565 130.205 220.577C129.406 219.29 128.436 218.117 127.321 217.09C126.211 216.063 124.929 215.239 123.534 214.655C121.927 213.998 120.234 213.806 118.521 213.792C116.809 213.779 115.075 213.946 113.381 214.011C111.655 214.089 109.928 213.879 108.271 213.389C106.613 212.902 105.079 212.067 103.77 210.938C99.6875 207.365 98.7001 202.282 99.0518 197.025C99.4035 191.769 101.094 186.286 102.371 181.903C102.996 179.752 103.699 177.402 104.487 174.87C105.274 172.337 106.137 169.635 107.092 166.773L103.342 165.42L99.5929 164.068C98.6244 166.773 97.6794 169.568 96.7578 172.454C95.8362 175.339 94.9525 178.315 94.1067 181.381C93.7315 182.741 93.3708 184.093 93.0246 185.439C92.6783 186.784 92.3519 188.103 92.0453 189.394Z" fill="#BAB653"/>
<path d="M99.2928 194.528C99.5561 193.316 99.8176 192.106 100.077 190.898L100.865 187.268C100.894 187.143 100.921 187.043 100.943 186.956C100.965 186.87 100.986 186.794 101.005 186.718C101.049 186.543 101.111 186.304 101.203 185.966C101.295 185.628 101.416 185.19 101.581 184.614C102.279 182.179 102.91 180.08 103.364 178.576C103.819 177.072 104.1 176.173 104.1 176.173C104.5 174.894 104.949 173.468 105.453 171.883C105.956 170.298 106.505 168.593 107.103 166.743L103.353 165.39L99.6039 164.038C98.8681 166.021 98.2107 167.858 97.6291 169.527C97.0475 171.196 96.547 172.689 96.1196 173.985C96.0276 174.255 95.1809 176.858 94.2097 180.275C93.2385 183.691 92.1483 187.933 91.5667 191.488C91.4288 192.324 91.2962 193.208 91.215 194.158C91.1339 195.107 91.0636 196.122 91.0527 197.215C91.0527 197.918 91.0527 198.567 91.0852 199.141C91.1177 199.714 91.1474 200.223 91.1826 200.645L95.2404 197.583L99.2928 194.528Z" fill="#666538"/>
<path d="M104.893 214.003C103.058 212.157 100.644 210.997 98.0564 210.716C96.1845 210.478 94.2828 210.693 92.5107 211.341C92.4404 211.071 92.3646 210.8 92.2727 210.554C91.8687 209.352 91.2213 208.247 90.3707 207.306C89.5201 206.366 88.4848 205.611 87.3293 205.089C86.1739 204.567 84.9232 204.289 83.6554 204.273C82.3876 204.256 81.13 204.501 79.9612 204.992C79.3409 205.246 78.7473 205.562 78.1893 205.934C77.441 204.093 76.078 202.569 74.3325 201.621C72.587 200.672 70.5667 200.358 68.6155 200.731C67.6564 200.912 66.7471 201.295 65.9488 201.857C65.1505 202.418 64.4818 203.144 63.9878 203.986C63.4938 204.827 63.1859 205.765 63.085 206.736C62.984 207.706 63.0923 208.687 63.4026 209.613C64.0563 211.591 65.4078 213.263 67.2044 214.317C69.001 215.372 71.1201 215.736 73.1657 215.342C73.301 215.315 73.4362 215.283 73.5688 215.245C73.6244 216.167 73.8065 217.077 74.1098 217.95C74.5141 219.152 75.1618 220.257 76.0124 221.197C76.863 222.137 77.8983 222.892 79.0537 223.414C80.209 223.936 81.4596 224.214 82.7272 224.231C83.9949 224.248 85.2524 224.003 86.4213 223.512C87.0283 223.266 87.6092 222.959 88.1553 222.598C88.4662 223.082 88.8231 223.535 89.2212 223.95C91.0757 225.766 93.4773 226.921 96.0541 227.234C98.6308 227.548 101.239 227.003 103.475 225.684C105.482 224.413 106.862 222.487 107.138 220.209C107.414 217.931 106.535 215.718 104.893 214.003Z" fill="#BAB653"/>
<path d="M101.395 219.316H101.365H101.335C99.3953 218.973 97.453 218.578 95.5242 218.131C93.5954 217.685 91.6828 217.187 89.7891 216.646C85.2481 215.343 80.7922 213.761 76.447 211.907C72.0741 210.043 67.8198 207.913 63.7081 205.528C63.6694 205.506 63.6356 205.476 63.6087 205.441C63.5817 205.406 63.5622 205.365 63.5512 205.322C63.539 205.279 63.5356 205.234 63.5412 205.19C63.5468 205.146 63.5612 205.103 63.5837 205.064C63.6062 205.026 63.6362 204.992 63.672 204.965C63.7077 204.938 63.7486 204.919 63.792 204.908C63.8345 204.897 63.879 204.894 63.9227 204.9C63.9664 204.906 64.0084 204.921 64.0462 204.943C68.1342 207.315 72.3642 209.432 76.7121 211.285C81.0285 213.128 85.4556 214.701 89.9677 215.994C91.8478 216.535 93.755 217.025 95.6676 217.469C97.5801 217.912 99.5144 218.305 101.446 218.645C101.533 218.663 101.61 218.714 101.66 218.787C101.711 218.86 101.731 218.95 101.716 219.038C101.701 219.114 101.659 219.183 101.598 219.232C101.538 219.282 101.462 219.309 101.384 219.308L101.395 219.316Z" fill="#666538"/>
<path d="M118.911 178.768C119.589 180.282 119.792 181.967 119.491 183.599C119.191 185.231 118.401 186.733 117.228 187.906C116.055 189.079 114.553 189.868 112.921 190.169C111.289 190.469 109.604 190.267 108.09 189.589C107.498 191.137 106.449 192.468 105.084 193.408C103.718 194.347 102.1 194.85 100.442 194.85C98.7849 194.85 97.1665 194.347 95.801 193.408C94.4355 192.468 93.3872 191.137 92.7947 189.589C91.2804 190.269 89.5951 190.472 87.9625 190.172C86.3298 189.872 84.827 189.083 83.6532 187.909C82.4794 186.736 81.6902 185.233 81.3903 183.6C81.0904 181.967 81.2939 180.282 81.9738 178.768C80.4256 178.176 79.0936 177.128 78.1538 175.763C77.2141 174.397 76.7109 172.779 76.7109 171.122C76.7109 169.464 77.2141 167.846 78.1538 166.48C79.0936 165.115 80.4256 164.067 81.9738 163.475C81.2939 161.961 81.0904 160.276 81.3903 158.643C81.6902 157.01 82.4794 155.508 83.6532 154.334C84.827 153.16 86.3298 152.371 87.9625 152.071C89.5951 151.771 91.2804 151.974 92.7947 152.654C93.3872 151.106 94.4355 149.775 95.801 148.835C97.1665 147.896 98.7849 147.393 100.442 147.393C102.1 147.393 103.718 147.896 105.084 148.835C106.449 149.775 107.498 151.106 108.09 152.654C109.604 151.976 111.289 151.774 112.921 152.074C114.553 152.375 116.055 153.164 117.228 154.337C118.401 155.51 119.191 157.013 119.491 158.644C119.792 160.276 119.589 161.961 118.911 163.475C120.459 164.067 121.791 165.115 122.731 166.48C123.671 167.846 124.174 169.464 124.174 171.122C124.174 172.779 123.671 174.397 122.731 175.763C121.791 177.128 120.459 178.176 118.911 178.768Z" fill="#DEB8FC"/>
<path d="M109.28 172.949C108.954 174.994 107.929 176.863 106.38 178.237C104.831 179.612 102.853 180.406 100.783 180.486C98.714 180.565 96.681 179.925 95.0308 178.673C93.3806 177.422 92.2154 175.637 91.7338 173.623C91.2521 171.609 91.4837 169.49 92.3892 167.627C93.2947 165.764 94.818 164.273 96.6995 163.408C98.5811 162.543 100.704 162.357 102.708 162.881C104.711 163.406 106.471 164.609 107.687 166.286C108.379 167.236 108.876 168.315 109.149 169.458C109.423 170.602 109.467 171.788 109.28 172.949Z" fill="white"/>
<path d="M76.6716 88.17C76.6728 89.0205 76.3791 89.845 75.8406 90.5032C75.302 91.1614 74.552 91.6126 73.7181 91.7798C72.8843 91.947 72.0182 91.82 71.2675 91.4203C70.5168 91.0206 69.9279 90.3731 69.6011 89.5879C69.2743 88.8028 69.2298 87.9286 69.4752 87.1143C69.7206 86.3 70.2408 85.596 70.947 85.1222C71.6532 84.6484 72.5019 84.4341 73.3484 84.5158C74.1949 84.5975 74.987 84.9702 75.5895 85.5703C75.9326 85.9107 76.2049 86.3157 76.3906 86.7619C76.5763 87.2081 76.6718 87.6867 76.6716 88.17Z" fill="#F98638"/>
<path d="M174.828 190.181H170.719H166.609L170.846 195.632L175.079 201.086L174.952 195.632L174.828 190.181Z" fill="#353519"/>
<path d="M105.953 241.572C105.93 240.719 106.014 239.867 106.202 239.035C106.504 237.671 107.11 236.393 107.974 235.296C108.954 234.07 110.24 233.123 111.701 232.55C112.69 232.162 113.721 231.89 114.772 231.739C116.431 231.465 118.128 231.53 119.76 231.931C121.388 232.332 122.907 233.088 124.208 234.146C124.933 234.744 125.577 235.434 126.123 236.2C126.407 236.594 126.661 237.01 126.88 237.444C127.255 238.195 127.533 238.99 127.708 239.811C127.832 240.389 127.904 240.976 127.922 241.567H116.939L105.953 241.572Z" fill="white"/>
<path d="M121.202 234.852C121.196 235.052 121.144 235.248 121.05 235.424C120.956 235.6 120.823 235.753 120.661 235.87C120.292 236.144 119.844 236.292 119.384 236.292C118.925 236.292 118.477 236.144 118.108 235.87C117.944 235.755 117.811 235.602 117.718 235.425C117.626 235.248 117.578 235.051 117.578 234.851C117.578 234.651 117.626 234.454 117.718 234.277C117.811 234.1 117.944 233.947 118.108 233.833C118.477 233.558 118.925 233.411 119.384 233.411C119.844 233.411 120.292 233.558 120.661 233.833C120.824 233.95 120.957 234.103 121.051 234.279C121.144 234.456 121.196 234.652 121.202 234.852Z" fill="#F98638"/>
<path d="M120.28 94.6625C120.277 94.6069 120.291 94.5517 120.319 94.5037C120.348 94.4558 120.389 94.417 120.439 94.392C120.49 94.3644 120.548 94.3529 120.606 94.3592C120.663 94.3655 120.717 94.3892 120.761 94.4272C126.525 99.3041 131.251 105.289 134.658 112.027C138.064 118.766 140.083 126.12 140.593 133.653C140.595 133.709 140.581 133.764 140.552 133.812C140.524 133.861 140.481 133.899 140.431 133.923C140.379 133.95 140.321 133.962 140.263 133.955C140.205 133.949 140.151 133.926 140.106 133.888C138.203 132.275 136.407 130.539 134.731 128.691C132.677 126.428 130.813 124 129.158 121.431C126.153 116.758 123.858 111.665 122.346 106.319C121.269 102.513 120.577 98.6075 120.28 94.6625Z" fill="white"/>
<path d="M183.495 120.99C183.553 120.995 183.607 121.017 183.652 121.054C183.697 121.09 183.731 121.139 183.748 121.194C183.766 121.249 183.767 121.308 183.751 121.363C183.736 121.419 183.704 121.469 183.66 121.506C177.922 126.412 171.257 130.115 164.061 132.396C156.865 134.677 149.283 135.489 141.767 134.784C141.71 134.779 141.655 134.757 141.61 134.721C141.564 134.685 141.531 134.637 141.513 134.582C141.495 134.527 141.494 134.468 141.51 134.412C141.526 134.357 141.558 134.307 141.602 134.27C143.5 132.649 145.503 131.154 147.597 129.795C150.16 128.132 152.856 126.685 155.659 125.467C160.752 123.252 166.147 121.805 171.665 121.174C175.593 120.718 179.556 120.656 183.495 120.99Z" fill="white"/>
<path d="M140.709 135.871C140.764 135.853 140.823 135.852 140.878 135.868C140.934 135.883 140.984 135.915 141.021 135.958C141.059 136.002 141.083 136.056 141.09 136.113C141.097 136.17 141.087 136.228 141.061 136.28C137.686 143.032 132.988 149.037 127.248 153.939C121.507 158.841 114.841 162.54 107.644 164.817C107.589 164.834 107.53 164.835 107.474 164.819C107.419 164.803 107.37 164.772 107.332 164.728C107.295 164.684 107.271 164.63 107.264 164.573C107.257 164.515 107.268 164.457 107.295 164.406C108.414 162.173 109.679 160.017 111.082 157.951C115.929 150.803 122.369 144.877 129.894 140.638C133.331 138.691 136.954 137.094 140.709 135.871Z" fill="white"/>
<path d="M143.985 136.096C143.985 136.795 143.742 137.473 143.297 138.014C142.853 138.554 142.235 138.924 141.549 139.06C140.862 139.196 140.15 139.09 139.533 138.759C138.916 138.429 138.433 137.895 138.166 137.249C137.899 136.602 137.864 135.883 138.067 135.213C138.271 134.544 138.7 133.966 139.282 133.577C139.864 133.189 140.563 133.014 141.259 133.083C141.956 133.152 142.606 133.461 143.101 133.956C143.382 134.237 143.604 134.57 143.756 134.938C143.908 135.305 143.986 135.698 143.985 136.096Z" fill="#F98638"/>
<path d="M161.556 169.995C161.556 170.839 161.263 171.657 160.727 172.31C160.192 172.962 159.446 173.409 158.618 173.573C157.79 173.738 156.93 173.61 156.186 173.212C155.441 172.814 154.858 172.17 154.535 171.39C154.212 170.61 154.169 169.742 154.415 168.934C154.66 168.126 155.178 167.428 155.88 166.959C156.582 166.491 157.425 166.279 158.265 166.362C159.105 166.445 159.891 166.817 160.487 167.414C160.827 167.752 161.096 168.155 161.279 168.598C161.463 169.041 161.557 169.515 161.556 169.995Z" fill="#DEB8FC"/>
<path d="M174.493 180.753C174.495 181.597 174.206 182.416 173.673 183.071C173.14 183.725 172.396 184.175 171.569 184.343C170.742 184.511 169.882 184.387 169.136 183.992C168.39 183.597 167.804 182.956 167.478 182.177C167.151 181.399 167.105 180.532 167.346 179.723C167.588 178.914 168.102 178.214 168.801 177.742C169.501 177.269 170.343 177.054 171.183 177.133C172.023 177.211 172.811 177.579 173.41 178.173C173.752 178.51 174.024 178.912 174.21 179.355C174.395 179.798 174.492 180.273 174.493 180.753Z" fill="#DEB8FC"/>
<path d="M179.602 161.671C179.602 162.515 179.309 163.333 178.774 163.986C178.238 164.638 177.493 165.085 176.664 165.25C175.836 165.414 174.977 165.286 174.232 164.888C173.488 164.49 172.904 163.846 172.581 163.066C172.258 162.286 172.216 161.418 172.461 160.61C172.706 159.802 173.224 159.105 173.926 158.636C174.628 158.167 175.471 157.956 176.311 158.038C177.151 158.121 177.937 158.493 178.534 159.09C178.873 159.429 179.142 159.831 179.326 160.274C179.509 160.717 179.603 161.191 179.602 161.671Z" fill="#DEB8FC"/>
<path d="M108.996 153.766C108.951 153.767 108.907 153.757 108.866 153.739C108.824 153.723 108.786 153.697 108.755 153.663C106.485 151.321 104.543 148.682 102.982 145.818C100.538 141.387 99.1256 136.461 98.8516 131.407C98.4458 123.608 100.88 117.148 103.68 112.417C105.58 109.189 107.951 106.262 110.714 103.733C110.782 103.674 110.87 103.644 110.959 103.649C111.049 103.655 111.133 103.696 111.193 103.763C111.222 103.796 111.245 103.834 111.26 103.876C111.274 103.918 111.28 103.962 111.277 104.006C111.274 104.051 111.263 104.094 111.243 104.134C111.224 104.174 111.196 104.21 111.163 104.239C108.457 106.72 106.136 109.59 104.276 112.755C101.53 117.394 99.1356 123.714 99.536 131.364C99.8063 136.319 101.193 141.148 103.594 145.491C105.124 148.301 107.028 150.891 109.253 153.19C109.316 153.254 109.351 153.341 109.351 153.431C109.349 153.52 109.313 153.605 109.25 153.667C109.187 153.73 109.101 153.765 109.012 153.766H108.996Z" fill="#666538"/>
<path d="M11.5163 186.329C9.25475 190.373 7.96436 194.715 7.75605 198.859C7.54775 203.004 8.42154 206.953 10.4829 210.205C12.2305 212.962 14.749 215.093 16.9754 216.606C18.5006 217.635 20.1116 218.531 21.7907 219.284C22.9256 219.784 24.0923 220.209 25.2832 220.555C26.2138 220.823 27.1573 221.045 28.1101 221.218L27.6394 217.125L27.166 213.029C27.166 213.029 21.4661 212.364 17.4948 208.701C13.5236 205.038 11.2728 198.354 18.2009 186.337H11.5163V186.329Z" fill="#BAB653"/>
<path d="M4.6559 178.973C3.90027 178.935 3.14942 179.113 2.49172 179.487C1.8506 179.848 1.33446 180.395 1.01197 181.056C0.677846 181.763 0.561997 182.553 0.679224 183.326C0.785649 184.125 1.20138 184.851 1.83706 185.347C2.3102 185.699 2.87258 185.91 3.46019 185.958C4.07831 186.007 4.69902 185.903 5.26728 185.655C4.47821 186.002 3.84051 186.621 3.47101 187.4C3.10908 188.16 3.03693 189.026 3.26812 189.835C3.51201 190.645 4.04167 191.339 4.7587 191.788C5.45205 192.238 6.28957 192.41 7.10412 192.27C7.84948 192.122 8.51959 191.718 8.99777 191.128C9.2568 190.826 9.46924 190.487 9.62809 190.122C9.75994 190.554 9.95308 190.964 10.2016 191.342C10.6567 192.069 11.3425 192.622 12.1494 192.913C12.9427 193.183 13.8001 193.199 14.603 192.959C15.4126 192.73 16.1115 192.215 16.5697 191.509C16.891 190.996 17.0702 190.407 17.0891 189.802C17.1048 189.439 17.072 189.075 16.9917 188.72C17.5706 189.408 18.3155 189.937 19.1559 190.257C19.934 190.553 20.7857 190.598 21.5906 190.384C21.9722 190.278 22.3367 190.118 22.6727 189.908C23.2715 189.548 23.7318 188.997 23.9793 188.344C24.2304 187.645 24.2304 186.88 23.9793 186.18C23.8593 185.816 23.6861 185.471 23.4653 185.158C24.3347 185.433 25.2745 185.381 26.1083 185.011C26.8983 184.667 27.5264 184.033 27.864 183.24C28.163 182.482 28.163 181.638 27.864 180.881C27.6004 180.159 27.1299 179.531 26.5114 179.076C26.0778 178.769 25.5817 178.562 25.0587 178.47C24.7284 178.412 24.3923 178.393 24.0577 178.416C24.382 178.184 24.6748 177.912 24.9288 177.605C25.3251 177.137 25.5869 176.57 25.6863 175.965C25.7464 175.432 25.6947 174.892 25.5345 174.379C25.3743 173.867 25.109 173.394 24.7557 172.989C24.4105 172.557 23.9819 172.199 23.4953 171.936C23.0086 171.673 22.474 171.51 21.9233 171.458C21.0924 171.419 20.2713 171.651 19.5833 172.118C19.192 172.372 18.8378 172.679 18.531 173.03C18.5658 172.566 18.5412 172.1 18.4579 171.642C18.341 170.944 18.0308 170.293 17.5625 169.762C16.6914 168.804 15.2928 168.38 13.9186 168.469C12.5443 168.558 11.1917 169.159 10.4207 170.246C9.96736 170.909 9.72242 171.692 9.71736 172.494C9.70521 172.992 9.75795 173.49 9.87426 173.974C9.38843 173.332 8.74311 172.827 8.00225 172.511C7.29976 172.207 6.52256 172.12 5.77045 172.262C4.76036 172.49 3.86967 173.082 3.26812 173.925C2.96387 174.313 2.74751 174.763 2.63401 175.242C2.52051 175.722 2.51257 176.221 2.61075 176.704C2.78218 177.34 3.14708 177.907 3.65497 178.327C3.9579 178.587 4.2946 178.804 4.6559 178.973Z" fill="#DEB8FC"/>
<path d="M11.5274 178.773C10.9275 178.583 10.2926 178.528 9.66895 178.614C9.35451 178.657 9.05328 178.768 8.7861 178.94C8.51892 179.111 8.29218 179.339 8.12157 179.606C7.89167 179.963 7.77786 180.382 7.79578 180.806C7.8137 181.23 7.96248 181.638 8.22166 181.973C8.46567 182.32 8.79441 182.599 9.17656 182.783C9.55871 182.966 9.98154 183.049 10.4048 183.023C10.3615 183.023 10.2912 183.126 10.2262 183.231C10.1613 183.337 10.1045 183.448 10.0829 183.483C9.92738 183.738 9.82748 184.022 9.78972 184.318C9.75196 184.615 9.77718 184.915 9.86373 185.201C9.95421 185.486 10.1067 185.747 10.3101 185.966C10.5136 186.185 10.763 186.356 11.0405 186.467C11.332 186.57 11.6418 186.61 11.9498 186.585C12.2579 186.561 12.5573 186.471 12.8286 186.323C13.3942 186.063 13.8662 185.635 14.1813 185.098C14.3115 184.829 14.4244 184.551 14.5194 184.267C14.6141 183.997 14.6817 183.767 14.6817 183.767C15.2228 184.392 15.5447 184.741 15.7368 184.936C15.8139 185.018 15.8971 185.095 15.9856 185.166C16.2213 185.305 16.4741 185.413 16.7377 185.488C17.243 185.639 17.7836 185.624 18.2797 185.444C18.409 185.397 18.5332 185.336 18.6503 185.263C18.7733 185.189 18.8893 185.104 18.9965 185.009C19.4236 184.623 19.7037 184.101 19.7892 183.532C19.8409 183.251 19.8297 182.963 19.7562 182.687C19.6828 182.412 19.549 182.156 19.3645 181.938C19.1985 181.765 19.0174 181.606 18.8234 181.465C18.6395 181.324 18.4907 181.224 18.4907 181.224L18.7044 181.119L18.8965 181.024C19.1746 180.878 19.4208 180.678 19.6206 180.435C19.8203 180.193 19.9696 179.913 20.0597 179.612C20.1582 179.31 20.1939 178.992 20.1646 178.676C20.1353 178.36 20.0416 178.053 19.8893 177.775C19.7026 177.439 19.4274 177.16 19.0935 176.97C18.7597 176.779 18.38 176.683 17.9956 176.693C17.613 176.692 17.2346 176.772 16.8853 176.929C16.536 177.085 16.2238 177.313 15.9694 177.599C15.9793 177.471 15.9793 177.343 15.9694 177.215C15.96 177.046 15.9319 176.878 15.8855 176.715C15.7514 176.253 15.4876 175.84 15.1254 175.524C14.9339 175.358 14.7221 175.216 14.4951 175.102C14.0459 174.892 13.5508 174.799 13.0559 174.832C12.5264 174.864 12.0262 175.086 11.6465 175.457C11.3276 175.786 11.1163 176.205 11.0405 176.658C10.9962 176.888 10.9826 177.124 10.9999 177.358C11.0147 177.496 11.0418 177.632 11.0811 177.764C11.1119 177.869 11.1499 177.971 11.1947 178.07C11.2163 178.127 11.2704 178.292 11.3327 178.446C11.3949 178.6 11.4679 178.757 11.5274 178.773Z" fill="#F98638"/>
<path d="M54.8325 202.955L53.4799 202.99L52.1138 203.025C52.1102 203.026 52.1066 203.025 52.1032 203.024C52.0998 203.023 52.0966 203.022 52.0938 203.019C52.091 203.017 52.0888 203.014 52.0871 203.011C52.0854 203.008 52.0844 203.005 52.084 203.001C52.0824 202.994 52.0837 202.986 52.0877 202.979C52.0918 202.973 52.0982 202.968 52.1057 202.966C53.1122 202.623 54.0343 202.069 54.8109 201.343C55.493 200.715 55.982 199.906 56.2203 199.011C56.4153 198.151 56.3676 197.254 56.0823 196.419C55.9321 195.952 55.723 195.506 55.4601 195.091C54.701 193.951 53.573 193.107 52.2653 192.7C50.8051 192.237 49.2445 192.194 47.7611 192.575C49.1737 192.253 50.4359 191.463 51.3428 190.333C52.1546 189.345 52.6144 188.116 52.6497 186.838C52.6849 185.561 52.2936 184.308 51.5376 183.277C50.8465 182.291 49.8516 181.557 48.7047 181.189C47.5579 180.821 46.322 180.838 45.1857 181.238C43.9678 181.648 42.9004 182.413 42.1207 183.434C42.7684 182.162 43.0083 180.722 42.8078 179.309C42.6207 177.937 41.9865 176.664 41.0034 175.689C39.9942 174.718 38.6979 174.099 37.3081 173.925C35.9598 173.732 34.5866 174.019 33.4288 174.737C32.0492 175.622 31.1294 177.172 30.8508 178.933C30.5604 180.856 31.0151 182.817 32.1222 184.416C32.1321 184.428 32.1376 184.443 32.1376 184.458C32.1376 184.473 32.1321 184.488 32.1222 184.5C32.1109 184.51 32.0965 184.515 32.0816 184.515C32.0667 184.515 32.0523 184.51 32.041 184.5C31.463 184.077 30.8067 183.772 30.1101 183.605C29.4135 183.437 28.6906 183.409 27.9832 183.523C27.3085 183.599 26.6596 183.827 26.085 184.188C25.5103 184.55 25.0247 185.037 24.6643 185.612C24.3039 186.188 24.078 186.837 24.0035 187.512C23.9289 188.187 24.0077 188.87 24.2338 189.51C24.4489 190.238 24.815 190.913 25.3081 191.491C25.8012 192.068 26.4103 192.535 27.0959 192.862C25.3414 192.498 23.5142 192.845 22.0155 193.828C20.6467 194.731 19.7052 196.092 19.5078 197.534C19.3703 198.857 19.7374 200.184 20.5357 201.248C21.3957 202.454 22.6333 203.338 24.0525 203.761L22.6512 203.799L21.2499 203.837C19.3951 203.887 17.6358 204.671 16.3589 206.017C15.0821 207.363 14.3922 209.162 14.4409 211.017C14.464 211.936 14.6681 212.841 15.0413 213.682C15.4146 214.522 15.9498 215.28 16.6163 215.914C17.2828 216.547 18.0675 217.043 18.9257 217.373C19.7839 217.703 20.6987 217.86 21.6178 217.836L27.3881 217.682L33.1583 217.528L33.6371 229.553L34.1159 241.58H44.0712L43.8737 229.407L43.6789 217.233L49.4464 217.079L55.2167 216.928C57.072 216.878 58.8317 216.093 60.1086 214.746C61.3856 213.4 62.0751 211.601 62.0257 209.745C62.0015 208.827 61.7966 207.922 61.4226 207.083C61.0486 206.244 60.513 205.486 59.8462 204.854C59.1795 204.222 58.3947 203.728 57.5367 203.399C56.6788 203.07 55.7645 202.914 54.846 202.939L54.8325 202.955Z" fill="#E9CF81"/>
<path d="M43.6654 217.25H40.8547H38.0439L40.9277 221.126L43.8115 225.003L43.7384 221.126L43.6654 217.25Z" fill="#353519"/>
<path d="M29.5112 193.2H27.0928C27.0036 193.199 26.9182 193.163 26.8554 193.1C26.7926 193.037 26.7573 192.951 26.7573 192.862C26.758 192.772 26.7939 192.687 26.8571 192.624C26.9204 192.56 27.006 192.525 27.0955 192.524H29.5139C29.6036 192.524 29.6896 192.559 29.7531 192.623C29.8165 192.686 29.8521 192.772 29.8521 192.862C29.8528 192.907 29.8446 192.951 29.8278 192.992C29.8111 193.034 29.7862 193.071 29.7547 193.103C29.7231 193.134 29.6856 193.159 29.6442 193.176C29.6029 193.193 29.5586 193.201 29.5139 193.2H29.5112Z" fill="#666538"/>
<path d="M52.3544 203.442H44.8123C44.7233 203.442 44.638 203.407 44.5742 203.345C44.5424 203.313 44.5172 203.276 44.5 203.234C44.4828 203.193 44.474 203.149 44.4741 203.104C44.4739 203.06 44.4827 203.016 44.4999 202.975C44.5171 202.934 44.5424 202.897 44.5742 202.866C44.6053 202.834 44.6424 202.809 44.6832 202.792C44.7241 202.775 44.768 202.766 44.8123 202.766H52.3544C52.4439 202.766 52.5295 202.802 52.5928 202.866C52.656 202.929 52.6919 203.014 52.6926 203.104C52.6926 203.194 52.657 203.28 52.5935 203.343C52.5301 203.406 52.4441 203.442 52.3544 203.442Z" fill="#666538"/>
<path d="M41.3441 184.871C41.3102 184.872 41.2764 184.867 41.244 184.857C41.1845 184.837 41.1315 184.801 41.0905 184.754C41.0496 184.706 41.0222 184.648 41.0114 184.587C41.0033 184.543 41.0041 184.497 41.0139 184.454C41.0236 184.41 41.0421 184.369 41.0682 184.332L41.455 183.791L41.8392 183.25C41.8614 183.207 41.8928 183.169 41.9311 183.139C41.9695 183.108 42.0139 183.087 42.0614 183.075C42.1088 183.064 42.1582 183.063 42.2061 183.073C42.2539 183.082 42.2992 183.102 42.3387 183.131C42.3782 183.159 42.411 183.196 42.4349 183.239C42.4589 183.281 42.4733 183.328 42.4772 183.377C42.4812 183.426 42.4746 183.475 42.4578 183.52C42.4411 183.566 42.4146 183.608 42.3802 183.642L41.9961 184.184L41.6092 184.725C41.5772 184.77 41.5344 184.806 41.4848 184.83C41.4416 184.854 41.3935 184.868 41.3441 184.871Z" fill="#666538"/>
<path d="M156.243 226.204L155.851 233.951L155.456 241.702L162.589 241.772L169.723 241.845L168.911 233.868C168.639 231.207 168.368 228.547 168.1 225.887C167.718 222.241 164.853 220.477 162.032 220.563C159.21 220.65 156.427 222.541 156.243 226.204Z" fill="white"/>
<path d="M164.575 224.183C164.57 224.281 164.541 224.377 164.49 224.461C164.44 224.545 164.37 224.616 164.286 224.667C164.074 224.798 163.831 224.867 163.582 224.867C163.334 224.867 163.09 224.798 162.879 224.667C162.789 224.622 162.713 224.553 162.66 224.468C162.607 224.382 162.579 224.284 162.579 224.183C162.579 224.082 162.607 223.984 162.66 223.898C162.713 223.813 162.789 223.744 162.879 223.699C163.089 223.566 163.333 223.496 163.582 223.496C163.831 223.496 164.075 223.566 164.286 223.699C164.37 223.749 164.44 223.82 164.491 223.905C164.541 223.989 164.57 224.085 164.575 224.183Z" fill="#F98638"/>
<path d="M166.723 227.015C166.719 227.154 166.684 227.29 166.62 227.413C166.557 227.536 166.466 227.643 166.355 227.727C166.096 227.917 165.784 228.019 165.462 228.019C165.141 228.019 164.829 227.917 164.57 227.727C164.455 227.647 164.362 227.54 164.297 227.416C164.233 227.292 164.199 227.155 164.199 227.015C164.199 226.876 164.233 226.738 164.297 226.614C164.362 226.49 164.455 226.384 164.57 226.304C164.828 226.112 165.141 226.009 165.462 226.009C165.784 226.009 166.097 226.112 166.355 226.304C166.466 226.387 166.557 226.494 166.621 226.617C166.685 226.74 166.72 226.877 166.723 227.015Z" fill="#F98638"/>
<path d="M36.5884 169.483C36.5884 169.483 38.62 164.444 41.658 158.433C44.6959 152.422 48.7483 145.448 52.7845 141.557C53.7152 140.629 54.9364 140.049 56.2439 139.913C57.5514 139.778 58.8657 140.096 59.9669 140.813C61.0856 141.491 61.9354 142.535 62.3718 143.767C62.8082 145 62.8044 146.346 62.361 147.577C61.7812 149.188 60.9712 150.707 59.9561 152.086C58.491 154.091 56.8289 155.944 54.9947 157.618L47.5094 165.366L40.0267 173.114C39.7855 172.723 39.5142 172.351 39.2151 172.002C38.4364 171.067 37.5553 170.222 36.5884 169.483Z" fill="#BAB653"/>
<path d="M39.7425 169.832C39.6707 169.832 39.6007 169.809 39.5423 169.767C39.4701 169.714 39.4216 169.634 39.407 169.546C39.3938 169.457 39.4162 169.366 39.4692 169.294L48.5588 156.899L57.6456 144.503C57.6988 144.431 57.7785 144.382 57.8674 144.368C57.9562 144.356 58.046 144.379 58.119 144.43C58.1916 144.484 58.2403 144.563 58.2543 144.652C58.2661 144.741 58.2438 144.831 58.1921 144.904L49.1025 157.299L40.013 169.694C39.9794 169.737 39.9369 169.772 39.8886 169.797C39.8429 169.819 39.7931 169.831 39.7425 169.832Z" fill="#666538"/>
<path d="M201.149 242.197L198.474 242.267L195.798 242.338C195.29 242.351 194.784 242.257 194.313 242.062C193.843 241.868 193.419 241.576 193.069 241.207C192.718 240.837 192.45 240.398 192.28 239.918C192.111 239.438 192.044 238.928 192.084 238.421L192.817 229.288L193.548 220.155L197.784 220.041L202.02 219.928L203.332 228.99L204.645 238.039C204.718 238.546 204.683 239.063 204.542 239.555C204.401 240.048 204.157 240.505 203.827 240.897C203.497 241.288 203.088 241.606 202.626 241.828C202.165 242.05 201.661 242.172 201.149 242.186V242.197Z" fill="white"/>
<path d="M193.55 220.155L198.341 223.856L203.129 227.554L202.578 223.742L202.026 219.928L197.789 220.041L193.55 220.155Z" fill="#AD4D4D"/>
<path d="M215.939 219.576L198.431 220.041L180.922 220.507C180.666 220.512 180.418 220.417 180.232 220.24C180.046 220.064 179.937 219.821 179.93 219.565L179.911 218.867L179.895 218.172C179.778 213.792 181.406 209.546 184.421 206.366C187.435 203.187 191.589 201.335 195.969 201.218L197.927 201.167L199.889 201.116C204.268 200.999 208.515 202.627 211.694 205.642C214.874 208.656 216.726 212.81 216.842 217.19L216.861 217.885L216.88 218.583C216.886 218.839 216.79 219.088 216.614 219.273C216.438 219.459 216.195 219.568 215.939 219.576Z" fill="#F98638"/>
<path d="M196.445 213.378C196.355 213.378 196.269 213.343 196.206 213.279C196.142 213.216 196.107 213.13 196.107 213.04V202.122L192.173 205.206L188.24 208.282C188.205 208.309 188.165 208.329 188.122 208.34C188.08 208.352 188.035 208.355 187.991 208.349C187.947 208.345 187.904 208.332 187.865 208.31C187.827 208.288 187.793 208.258 187.767 208.222C187.738 208.188 187.718 208.148 187.706 208.105C187.693 208.062 187.69 208.017 187.696 207.973C187.702 207.929 187.716 207.887 187.737 207.848C187.759 207.81 187.788 207.776 187.823 207.749L191.8 204.63L195.777 201.519C195.853 201.436 195.952 201.378 196.061 201.35C196.17 201.323 196.285 201.328 196.391 201.364C196.504 201.403 196.603 201.476 196.673 201.573C196.743 201.67 196.782 201.786 196.783 201.906V213.032C196.783 213.122 196.747 213.208 196.684 213.271C196.621 213.335 196.535 213.37 196.445 213.37V213.378Z" fill="#AD4D4D"/>
<path d="M204.997 210.143C204.954 210.143 204.912 210.135 204.872 210.119C204.83 210.104 204.792 210.08 204.761 210.048L200.433 205.898L196.104 201.746L196.191 201.492L196.275 201.235L196.435 201.275L196.591 201.313L201.19 202.641L205.789 203.97C205.875 203.996 205.948 204.054 205.992 204.132C206.025 204.19 206.04 204.257 206.035 204.324C206.03 204.391 206.005 204.455 205.963 204.508C205.921 204.56 205.864 204.599 205.8 204.619C205.735 204.638 205.667 204.639 205.603 204.619L201.639 203.477L197.711 202.33L201.472 205.942L205.229 209.556C205.261 209.587 205.286 209.624 205.304 209.665C205.321 209.707 205.33 209.751 205.33 209.795C205.33 209.84 205.321 209.884 205.304 209.925C205.286 209.966 205.261 210.003 205.229 210.035C205.198 210.068 205.16 210.094 205.118 210.112C205.076 210.13 205.031 210.138 204.986 210.137L204.997 210.143Z" fill="#AD4D4D"/>
<path d="M213.983 26.2205L210.442 28.0384L206.906 29.8455C206.813 29.8925 206.731 29.9585 206.666 30.0393C206.6 30.1201 206.552 30.2138 206.525 30.3144C206.498 30.4149 206.492 30.5201 206.509 30.6229C206.525 30.7258 206.563 30.8241 206.619 30.9113L208.784 34.2442L210.948 37.5797C211.021 37.6947 211.062 37.8278 211.065 37.9643C211.068 38.1009 211.034 38.2356 210.965 38.3538C210.897 38.472 210.797 38.5691 210.677 38.6344C210.557 38.6997 210.421 38.7307 210.285 38.724L206.319 38.5184L202.351 38.3101C202.247 38.3046 202.143 38.3211 202.045 38.3585C201.948 38.3959 201.86 38.4533 201.787 38.5271C201.713 38.6008 201.656 38.6893 201.619 38.7866C201.582 38.8839 201.566 38.9879 201.572 39.0919L201.777 43.0578L201.983 47.0263C201.99 47.1631 201.96 47.2993 201.895 47.4198C201.83 47.5404 201.733 47.6406 201.614 47.7092C201.496 47.7779 201.36 47.8123 201.223 47.8088C201.086 47.8052 200.953 47.7638 200.838 47.6891L197.506 45.5249L194.17 43.3607C194.083 43.3043 193.985 43.2667 193.882 43.2504C193.779 43.2342 193.675 43.2396 193.574 43.2663C193.474 43.2931 193.38 43.3406 193.299 43.4058C193.218 43.471 193.152 43.5524 193.104 43.6448L191.297 47.1832L189.487 50.7217C189.425 50.8433 189.331 50.9453 189.214 51.0166C189.098 51.0879 188.964 51.1256 188.827 51.1256C188.691 51.1256 188.557 51.0879 188.44 51.0166C188.324 50.9453 188.229 50.8433 188.167 50.7217L186.365 47.1913L184.556 43.6529C184.508 43.5606 184.442 43.4792 184.362 43.4141C184.281 43.3489 184.187 43.3014 184.087 43.2746C183.987 43.2478 183.882 43.2424 183.78 43.2586C183.677 43.2749 183.58 43.3124 183.493 43.3689L180.157 45.533L176.824 47.6972C176.709 47.7719 176.576 47.8133 176.439 47.8169C176.302 47.8204 176.167 47.786 176.048 47.7173C175.93 47.6487 175.833 47.5485 175.768 47.428C175.703 47.3074 175.672 47.1712 175.68 47.0344L175.885 43.0659L176.091 39.1C176.097 38.9958 176.081 38.8915 176.044 38.7939C176.007 38.6964 175.949 38.608 175.875 38.5346C175.801 38.461 175.713 38.4037 175.616 38.3664C175.519 38.3291 175.416 38.3127 175.312 38.3182L171.343 38.5265L167.378 38.7321C167.241 38.7391 167.105 38.7082 166.984 38.6428C166.864 38.5774 166.764 38.48 166.695 38.3614C166.627 38.2427 166.592 38.1075 166.596 37.9705C166.599 37.8335 166.64 37.7001 166.715 37.5851L168.879 34.2523L171.043 30.9194C171.1 30.8322 171.138 30.7339 171.154 30.6311C171.17 30.5282 171.165 30.4231 171.138 30.3225C171.111 30.2219 171.063 30.1282 170.997 30.0474C170.931 29.9666 170.849 29.9006 170.756 29.8536L167.221 28.0465L163.661 26.2205C163.538 26.1586 163.435 26.064 163.364 25.9473C163.292 25.8305 163.254 25.6961 163.254 25.5591C163.254 25.422 163.292 25.2876 163.364 25.1708C163.435 25.0541 163.538 24.9595 163.661 24.8976L167.199 23.0905L170.735 21.2808C170.828 21.2339 170.91 21.168 170.975 21.0873C171.041 21.0067 171.089 20.9132 171.116 20.8127C171.143 20.712 171.148 20.6068 171.132 20.5039C171.115 20.401 171.078 20.3026 171.021 20.2149L168.857 16.8821L166.693 13.5492C166.624 13.434 166.588 13.3021 166.587 13.1678C166.587 13.0334 166.624 12.9015 166.692 12.7861C166.761 12.6707 166.86 12.5761 166.978 12.5123C167.096 12.4485 167.23 12.418 167.364 12.4239L171.33 12.6322L175.298 12.8378C175.404 12.8446 175.51 12.8287 175.61 12.7911C175.709 12.7534 175.799 12.6949 175.873 12.6195C175.948 12.5441 176.006 12.4536 176.042 12.354C176.079 12.2545 176.094 12.1482 176.086 12.0424L175.88 8.07658L175.674 4.10802C175.666 3.97113 175.696 3.83467 175.761 3.71393C175.826 3.59319 175.924 3.49294 176.043 3.42442C176.161 3.3559 176.297 3.3218 176.434 3.32596C176.571 3.33012 176.704 3.37235 176.819 3.44795L180.152 5.61212L183.487 7.7763C183.574 7.83335 183.672 7.8713 183.775 7.88762C183.877 7.90394 183.982 7.89827 184.082 7.87098C184.183 7.84398 184.276 7.79636 184.357 7.73116C184.439 7.66595 184.505 7.58459 184.553 7.49225L186.365 3.943L188.175 0.407282C188.237 0.284863 188.331 0.181939 188.448 0.110015C188.564 0.0380911 188.698 0 188.835 0C188.972 0 189.107 0.0380911 189.223 0.110015C189.34 0.181939 189.434 0.284863 189.495 0.407282L191.305 3.943L193.115 7.48143C193.163 7.57264 193.23 7.6527 193.312 7.7165C193.393 7.78029 193.487 7.8264 193.587 7.85188C193.687 7.87735 193.791 7.88161 193.893 7.86441C193.995 7.8472 194.092 7.8089 194.178 7.75195L197.514 5.58778L200.847 3.4236C200.961 3.34801 201.094 3.30577 201.231 3.30161C201.368 3.29746 201.504 3.33155 201.623 3.40007C201.741 3.4686 201.839 3.56884 201.904 3.68958C201.969 3.81032 201.999 3.94678 201.991 4.08367L201.785 8.07658L201.58 12.0451C201.574 12.1489 201.59 12.2528 201.627 12.3498C201.664 12.4469 201.722 12.5348 201.796 12.6078C201.869 12.6814 201.957 12.7388 202.054 12.7761C202.151 12.8134 202.255 12.8298 202.359 12.8242L206.327 12.6186L210.28 12.4239C210.416 12.4168 210.553 12.4477 210.673 12.5132C210.793 12.5786 210.893 12.676 210.962 12.7946C211.03 12.9133 211.065 13.0485 211.061 13.1855C211.058 13.3225 211.017 13.4558 210.942 13.5709L208.778 16.9037L206.614 20.2365C206.558 20.3242 206.52 20.4226 206.504 20.5255C206.488 20.6284 206.493 20.7336 206.519 20.8344C206.547 20.9348 206.595 21.0284 206.66 21.109C206.726 21.1896 206.808 21.2555 206.901 21.3024L210.442 23.0987L213.98 24.9057C214.103 24.9676 214.205 25.0622 214.277 25.179C214.349 25.2957 214.387 25.4301 214.387 25.5672C214.387 25.7042 214.349 25.8386 214.277 25.9554C214.205 26.0722 214.103 26.1667 213.98 26.2286L213.983 26.2205Z" fill="#E9CF81"/>
<path d="M203.679 25.5685C203.679 29.0059 202.487 32.3368 200.306 34.9938C198.125 37.6508 195.091 39.4695 191.72 40.1399C188.348 40.8103 184.849 40.291 181.817 38.6704C178.786 37.0498 176.41 34.4283 175.095 31.2525C173.78 28.0767 173.607 24.5432 174.605 21.2539C175.603 17.9647 177.711 15.1233 180.569 13.214C183.427 11.3046 186.859 10.4454 190.28 10.7828C193.701 11.1202 196.899 12.6332 199.329 15.0642C200.71 16.4422 201.806 18.0795 202.552 19.8822C203.299 21.6849 203.682 23.6174 203.679 25.5685Z" fill="#F98638"/>
</g>
<defs>
<clipPath id="clip0_3_693">
<rect width="249.73" height="242.359" fill="white" transform="translate(0.634766)"/>
</clipPath>
</defs>
</svg>
